<mxfile host="Electron" modified="2023-04-25T03:27:47.802Z" agent="Mozilla/5.0 (Windows NT 10.0; Win64; x64) AppleWebKit/537.36 (KHTML, like Gecko) draw.io/21.2.1 Chrome/112.0.5615.87 Electron/24.1.2 Safari/537.36" etag="2ITEfnacNM6pmiwNQRvo" version="21.2.1" type="device">
  <diagram name="Page-1" id="nm1Ir9rzRCwb2qpTe-Ui">
    <mxGraphModel dx="1050" dy="629" grid="1" gridSize="10" guides="1" tooltips="1" connect="1" arrows="1" fold="1" page="1" pageScale="1" pageWidth="1169" pageHeight="827" math="0" shadow="0">
      <root>
        <mxCell id="0" />
        <mxCell id="1" parent="0" />
        <mxCell id="0MrqZ-hSudMxaLZ0jEUh-1" value="MCU&lt;br&gt;(Raspberry&amp;nbsp;Pi)" style="rounded=0;whiteSpace=wrap;html=1;" vertex="1" parent="1">
          <mxGeometry x="440" y="274" width="120" height="60" as="geometry" />
        </mxCell>
        <mxCell id="0MrqZ-hSudMxaLZ0jEUh-2" value="Flash&lt;br&gt;Memory" style="rounded=0;whiteSpace=wrap;html=1;" vertex="1" parent="1">
          <mxGeometry x="470" y="374" width="60" height="40" as="geometry" />
        </mxCell>
        <mxCell id="0MrqZ-hSudMxaLZ0jEUh-3" value="Sound Card Interface&lt;br&gt;(RPi Hat)" style="rounded=0;whiteSpace=wrap;html=1;" vertex="1" parent="1">
          <mxGeometry x="610" y="274" width="80" height="60" as="geometry" />
        </mxCell>
        <mxCell id="0MrqZ-hSudMxaLZ0jEUh-4" value="Octocoupler&lt;br&gt;(EasyDigi)" style="rounded=0;whiteSpace=wrap;html=1;" vertex="1" parent="1">
          <mxGeometry x="750" y="274" width="85" height="60" as="geometry" />
        </mxCell>
        <mxCell id="0MrqZ-hSudMxaLZ0jEUh-6" value="Transceiver&lt;br&gt;(Yaesu FTM-100 or FTM 300)" style="rounded=0;whiteSpace=wrap;html=1;" vertex="1" parent="1">
          <mxGeometry x="740" y="150" width="105" height="70" as="geometry" />
        </mxCell>
        <mxCell id="0MrqZ-hSudMxaLZ0jEUh-7" value="Sensors &lt;br&gt;Interface&lt;br&gt;(Optional)" style="rounded=0;whiteSpace=wrap;html=1;dashed=1;" vertex="1" parent="1">
          <mxGeometry x="280" y="244" width="80" height="60" as="geometry" />
        </mxCell>
        <mxCell id="0MrqZ-hSudMxaLZ0jEUh-8" value="Sensors" style="whiteSpace=wrap;html=1;aspect=fixed;" vertex="1" parent="1">
          <mxGeometry x="160" y="274" width="64" height="64" as="geometry" />
        </mxCell>
        <mxCell id="0MrqZ-hSudMxaLZ0jEUh-9" value="" style="endArrow=classic;startArrow=classic;html=1;rounded=0;entryX=0.5;entryY=1;entryDx=0;entryDy=0;exitX=0.5;exitY=0;exitDx=0;exitDy=0;" edge="1" parent="1" source="0MrqZ-hSudMxaLZ0jEUh-2" target="0MrqZ-hSudMxaLZ0jEUh-1">
          <mxGeometry width="50" height="50" relative="1" as="geometry">
            <mxPoint x="560" y="380" as="sourcePoint" />
            <mxPoint x="610" y="330" as="targetPoint" />
          </mxGeometry>
        </mxCell>
        <mxCell id="0MrqZ-hSudMxaLZ0jEUh-20" value="" style="endArrow=classic;startArrow=classic;html=1;rounded=0;exitX=1;exitY=0.75;exitDx=0;exitDy=0;entryX=0;entryY=0.25;entryDx=0;entryDy=0;dashed=1;" edge="1" parent="1" source="0MrqZ-hSudMxaLZ0jEUh-7" target="0MrqZ-hSudMxaLZ0jEUh-1">
          <mxGeometry width="50" height="50" relative="1" as="geometry">
            <mxPoint x="440" y="310" as="sourcePoint" />
            <mxPoint x="440" y="298" as="targetPoint" />
          </mxGeometry>
        </mxCell>
        <mxCell id="0MrqZ-hSudMxaLZ0jEUh-21" value="" style="endArrow=classic;startArrow=classic;html=1;rounded=0;exitX=1;exitY=0.5;exitDx=0;exitDy=0;entryX=0;entryY=0.5;entryDx=0;entryDy=0;" edge="1" parent="1" source="0MrqZ-hSudMxaLZ0jEUh-1" target="0MrqZ-hSudMxaLZ0jEUh-3">
          <mxGeometry width="50" height="50" relative="1" as="geometry">
            <mxPoint x="570" y="320" as="sourcePoint" />
            <mxPoint x="620" y="270" as="targetPoint" />
          </mxGeometry>
        </mxCell>
        <mxCell id="0MrqZ-hSudMxaLZ0jEUh-22" value="" style="endArrow=classic;startArrow=classic;html=1;rounded=0;exitX=1;exitY=0.5;exitDx=0;exitDy=0;entryX=0.9;entryY=1.006;entryDx=0;entryDy=0;entryPerimeter=0;" edge="1" parent="1" target="0MrqZ-hSudMxaLZ0jEUh-29">
          <mxGeometry width="50" height="50" relative="1" as="geometry">
            <mxPoint x="690" y="303.66" as="sourcePoint" />
            <mxPoint x="780" y="303.66" as="targetPoint" />
          </mxGeometry>
        </mxCell>
        <mxCell id="0MrqZ-hSudMxaLZ0jEUh-23" value="" style="endArrow=classic;startArrow=classic;html=1;rounded=0;entryX=0.667;entryY=1;entryDx=0;entryDy=0;entryPerimeter=0;exitX=0.712;exitY=0.006;exitDx=0;exitDy=0;exitPerimeter=0;" edge="1" parent="1" source="0MrqZ-hSudMxaLZ0jEUh-4" target="0MrqZ-hSudMxaLZ0jEUh-6">
          <mxGeometry width="50" height="50" relative="1" as="geometry">
            <mxPoint x="810" y="270" as="sourcePoint" />
            <mxPoint x="874" y="220" as="targetPoint" />
          </mxGeometry>
        </mxCell>
        <mxCell id="0MrqZ-hSudMxaLZ0jEUh-24" value="" style="endArrow=classic;html=1;rounded=0;entryX=0;entryY=0.75;entryDx=0;entryDy=0;exitX=1;exitY=0.25;exitDx=0;exitDy=0;dashed=1;" edge="1" parent="1" source="0MrqZ-hSudMxaLZ0jEUh-8" target="0MrqZ-hSudMxaLZ0jEUh-7">
          <mxGeometry width="50" height="50" relative="1" as="geometry">
            <mxPoint x="500" y="310" as="sourcePoint" />
            <mxPoint x="550" y="260" as="targetPoint" />
          </mxGeometry>
        </mxCell>
        <mxCell id="0MrqZ-hSudMxaLZ0jEUh-27" value="" style="endArrow=classic;html=1;rounded=0;exitX=0.75;exitY=1;exitDx=0;exitDy=0;entryX=0.5;entryY=1;entryDx=0;entryDy=0;" edge="1" parent="1" source="0MrqZ-hSudMxaLZ0jEUh-1" target="0MrqZ-hSudMxaLZ0jEUh-4">
          <mxGeometry width="50" height="50" relative="1" as="geometry">
            <mxPoint x="560" y="300" as="sourcePoint" />
            <mxPoint x="820" y="370" as="targetPoint" />
            <Array as="points">
              <mxPoint x="530" y="360" />
              <mxPoint x="793" y="360" />
            </Array>
          </mxGeometry>
        </mxCell>
        <mxCell id="0MrqZ-hSudMxaLZ0jEUh-28" value="" style="endArrow=classic;html=1;rounded=0;entryX=0.296;entryY=0.999;entryDx=0;entryDy=0;exitX=0.25;exitY=0;exitDx=0;exitDy=0;entryPerimeter=0;" edge="1" parent="1" source="0MrqZ-hSudMxaLZ0jEUh-4" target="0MrqZ-hSudMxaLZ0jEUh-6">
          <mxGeometry width="50" height="50" relative="1" as="geometry">
            <mxPoint x="760" y="270" as="sourcePoint" />
            <mxPoint x="841" y="220" as="targetPoint" />
          </mxGeometry>
        </mxCell>
        <mxCell id="0MrqZ-hSudMxaLZ0jEUh-29" value="Audio" style="text;html=1;strokeColor=none;fillColor=none;align=center;verticalAlign=middle;whiteSpace=wrap;rounded=0;" vertex="1" parent="1">
          <mxGeometry x="690" y="274" width="60" height="30" as="geometry" />
        </mxCell>
        <mxCell id="0MrqZ-hSudMxaLZ0jEUh-30" value="PTT Line" style="text;html=1;strokeColor=none;fillColor=none;align=center;verticalAlign=middle;whiteSpace=wrap;rounded=0;" vertex="1" parent="1">
          <mxGeometry x="620" y="360" width="60" height="30" as="geometry" />
        </mxCell>
        <mxCell id="0MrqZ-hSudMxaLZ0jEUh-31" value="PTT &lt;br&gt;Line" style="text;html=1;strokeColor=none;fillColor=none;align=center;verticalAlign=middle;whiteSpace=wrap;rounded=0;" vertex="1" parent="1">
          <mxGeometry x="710" y="230" width="60" height="30" as="geometry" />
        </mxCell>
        <mxCell id="0MrqZ-hSudMxaLZ0jEUh-33" value="Audio" style="text;html=1;strokeColor=none;fillColor=none;align=center;verticalAlign=middle;whiteSpace=wrap;rounded=0;" vertex="1" parent="1">
          <mxGeometry x="820" y="230" width="60" height="30" as="geometry" />
        </mxCell>
        <mxCell id="0MrqZ-hSudMxaLZ0jEUh-34" value="RF" style="text;html=1;strokeColor=none;fillColor=none;align=center;verticalAlign=middle;whiteSpace=wrap;rounded=0;" vertex="1" parent="1">
          <mxGeometry x="845" y="160" width="60" height="30" as="geometry" />
        </mxCell>
        <mxCell id="0MrqZ-hSudMxaLZ0jEUh-35" value="SPI" style="text;html=1;strokeColor=none;fillColor=none;align=center;verticalAlign=middle;whiteSpace=wrap;rounded=0;" vertex="1" parent="1">
          <mxGeometry x="450" y="338" width="60" height="30" as="geometry" />
        </mxCell>
        <mxCell id="0MrqZ-hSudMxaLZ0jEUh-36" value="UART" style="text;html=1;strokeColor=none;fillColor=none;align=center;verticalAlign=middle;whiteSpace=wrap;rounded=0;dashed=1;" vertex="1" parent="1">
          <mxGeometry x="370" y="260" width="60" height="30" as="geometry" />
        </mxCell>
        <mxCell id="0MrqZ-hSudMxaLZ0jEUh-37" value="" style="endArrow=classic;startArrow=classic;html=1;rounded=0;entryX=0;entryY=0.5;entryDx=0;entryDy=0;exitX=1;exitY=0.5;exitDx=0;exitDy=0;" edge="1" parent="1" source="0MrqZ-hSudMxaLZ0jEUh-6">
          <mxGeometry width="50" height="50" relative="1" as="geometry">
            <mxPoint x="620" y="220" as="sourcePoint" />
            <mxPoint x="920" y="185" as="targetPoint" />
          </mxGeometry>
        </mxCell>
        <mxCell id="0MrqZ-hSudMxaLZ0jEUh-39" value="EPS" style="whiteSpace=wrap;html=1;aspect=fixed;" vertex="1" parent="1">
          <mxGeometry x="160" y="155" width="65" height="65" as="geometry" />
        </mxCell>
        <mxCell id="0MrqZ-hSudMxaLZ0jEUh-40" value="" style="endArrow=classic;html=1;rounded=0;entryX=0.5;entryY=0;entryDx=0;entryDy=0;exitX=1.01;exitY=0.859;exitDx=0;exitDy=0;exitPerimeter=0;" edge="1" parent="1" source="0MrqZ-hSudMxaLZ0jEUh-39" target="0MrqZ-hSudMxaLZ0jEUh-1">
          <mxGeometry width="50" height="50" relative="1" as="geometry">
            <mxPoint x="540" y="340" as="sourcePoint" />
            <mxPoint x="590" y="290" as="targetPoint" />
            <Array as="points">
              <mxPoint x="500" y="209" />
            </Array>
          </mxGeometry>
        </mxCell>
        <mxCell id="0MrqZ-hSudMxaLZ0jEUh-41" value="" style="endArrow=classic;html=1;rounded=0;entryX=0;entryY=0.5;entryDx=0;entryDy=0;exitX=1;exitY=0.5;exitDx=0;exitDy=0;" edge="1" parent="1" source="0MrqZ-hSudMxaLZ0jEUh-39" target="0MrqZ-hSudMxaLZ0jEUh-6">
          <mxGeometry width="50" height="50" relative="1" as="geometry">
            <mxPoint x="540" y="340" as="sourcePoint" />
            <mxPoint x="590" y="290" as="targetPoint" />
          </mxGeometry>
        </mxCell>
        <mxCell id="0MrqZ-hSudMxaLZ0jEUh-42" value="" style="endArrow=classic;html=1;rounded=0;entryX=0.5;entryY=0;entryDx=0;entryDy=0;exitX=0.5;exitY=1;exitDx=0;exitDy=0;" edge="1" parent="1" source="0MrqZ-hSudMxaLZ0jEUh-39" target="0MrqZ-hSudMxaLZ0jEUh-8">
          <mxGeometry width="50" height="50" relative="1" as="geometry">
            <mxPoint x="540" y="340" as="sourcePoint" />
            <mxPoint x="590" y="290" as="targetPoint" />
          </mxGeometry>
        </mxCell>
        <mxCell id="0MrqZ-hSudMxaLZ0jEUh-43" value="" style="endArrow=classic;html=1;rounded=0;entryX=0.5;entryY=0;entryDx=0;entryDy=0;exitX=0.75;exitY=1;exitDx=0;exitDy=0;dashed=1;" edge="1" parent="1" source="0MrqZ-hSudMxaLZ0jEUh-39" target="0MrqZ-hSudMxaLZ0jEUh-7">
          <mxGeometry width="50" height="50" relative="1" as="geometry">
            <mxPoint x="540" y="340" as="sourcePoint" />
            <mxPoint x="590" y="290" as="targetPoint" />
            <Array as="points">
              <mxPoint x="209" y="230" />
              <mxPoint x="320" y="230" />
            </Array>
          </mxGeometry>
        </mxCell>
        <mxCell id="0MrqZ-hSudMxaLZ0jEUh-49" value="" style="rounded=0;whiteSpace=wrap;html=1;fillColor=none;dashed=1;dashPattern=12 12;" vertex="1" parent="1">
          <mxGeometry x="420" y="130" width="470" height="310" as="geometry" />
        </mxCell>
        <mxCell id="0MrqZ-hSudMxaLZ0jEUh-45" value="" style="endArrow=classic;html=1;rounded=0;exitX=1;exitY=0.75;exitDx=0;exitDy=0;startArrow=classic;startFill=1;" edge="1" parent="1" source="0MrqZ-hSudMxaLZ0jEUh-8">
          <mxGeometry width="50" height="50" relative="1" as="geometry">
            <mxPoint x="230" y="319" as="sourcePoint" />
            <mxPoint x="440" y="322" as="targetPoint" />
          </mxGeometry>
        </mxCell>
        <mxCell id="0MrqZ-hSudMxaLZ0jEUh-46" value="UART" style="text;html=1;strokeColor=none;fillColor=none;align=center;verticalAlign=middle;whiteSpace=wrap;rounded=0;dashed=1;" vertex="1" parent="1">
          <mxGeometry x="290" y="320" width="60" height="30" as="geometry" />
        </mxCell>
        <mxCell id="0MrqZ-hSudMxaLZ0jEUh-52" value="Antenna&lt;br&gt;(Eggbeater&lt;br&gt;&amp;nbsp;or Monopole)" style="rounded=0;whiteSpace=wrap;html=1;" vertex="1" parent="1">
          <mxGeometry x="920" y="155" width="90" height="55" as="geometry" />
        </mxCell>
      </root>
    </mxGraphModel>
  </diagram>
</mxfile>
